<svg width="200" height="200" viewBox="0 0 200 200" fill="none" xmlns="http://www.w3.org/2000/svg">
  <!-- Empty box with shadow -->
  <rect x="40" y="50" width="120" height="110" rx="8" fill="#F5F5F5" stroke="#E0E0E0" stroke-width="2"/>
  <rect x="50" y="40" width="100" height="20" rx="4" fill="#FF5C00" stroke="#E65100" stroke-width="2"/>
  
  <!-- Box flaps -->
  <path d="M50 50 L70 30 L130 30 L150 50" stroke="#E0E0E0" stroke-width="2" fill="#FAFAFA"/>
  
  <!-- McDonald's logo suggestion -->
  <path d="M85 80 C85 60, 115 60, 115 80" stroke="#FF5C00" stroke-width="6" stroke-linecap="round"/>
  
  <!-- Empty state elements -->
  <line x1="60" y1="100" x2="140" y2="100" stroke="#E0E0E0" stroke-width="2" stroke-dasharray="4 2"/>
  <line x1="60" y1="120" x2="140" y2="120" stroke="#E0E0E0" stroke-width="2" stroke-dasharray="4 2"/>
  <line x1="60" y1="140" x2="140" y2="140" stroke="#E0E0E0" stroke-width="2" stroke-dasharray="4 2"/>
  
  <!-- Sad face -->
  <circle cx="100" cy="170" r="15" fill="#FFECB3"/>
  <circle cx="93" cy="165" r="2" fill="#333"/>
  <circle cx="107" cy="165" r="2" fill="#333"/>
  <path d="M93 178 C93 173, 107 173, 107 178" stroke="#333" stroke-width="2" stroke-linecap="round" transform="rotate(180 100 175.5)"/>
</svg>