<?xml version="1.0" encoding="utf-8"?>
<!-- Generator: Adobe Illustrator 23.0.1, SVG Export Plug-In . SVG Version: 6.00 Build 0)  -->
<svg version="1.1" id="Layer_1" xmlns="http://www.w3.org/2000/svg" xmlns:xlink="http://www.w3.org/1999/xlink" x="0px" y="0px"
	 viewBox="0 0 300 300" style="enable-background:new 0 0 300 300;" xml:space="preserve">
<style type="text/css">
	.st0{fill:#ED232B;}
	.st1{fill:#FDB823;}
</style>
<polygon class="st0" points="197.93,193.18 205.62,106.42 197.23,74.2 93.58,74.2 85.19,106.42 92.88,193.18 "/>
<path class="st1" d="M197.23,74.2h-17.29c-1.85-12.79-4.92-20.64-9.89-20.64c-5.19,0-8.52,7.89-10.55,20.64H131.3
	c-2.02-12.74-5.35-20.64-10.55-20.64c-4.98,0-8.05,7.85-9.89,20.64H93.58c8.01-22.09,19.02-31.57,28.01-31.57
	c8.79,0,17.82,9.38,23.82,21.05c6.01-11.67,15.04-21.05,23.82-21.05C178.21,42.63,189.22,52.11,197.23,74.2 M184.65,130.88
	l4.62,2.12l2.23-4.87l-12.71-5.82l-2.23,4.87l3.91,1.79c-3.84,13.74-18.08,23.95-35.06,23.95c-16.98,0-31.22-10.2-35.06-23.95
	l3.91-1.79l-2.23-4.87l-12.71,5.82l2.23,4.87l4.62-2.12c5.58,18.32,21.03,31.49,39.24,31.49
	C163.61,162.37,179.07,149.2,184.65,130.88"/>
<path class="st0" d="M168.13,246.39l4.4-30.55l8.01,0.25l5.79,19.47l7.06-19.06l8.01,0.26l2.46,30.77l-8.19-0.26l-1.19-18.77
	l-5.97,16.3l-5.08-0.16l-4.97-16.83l-2.43,18.84L168.13,246.39z M216.39,243.44c-2.17-0.13-4.1-0.68-5.82-1.66
	c-1.72-0.99-3.04-2.4-3.98-4.24c-0.94-1.84-1.32-4.13-1.17-6.88c0.14-2.47,0.74-4.58,1.8-6.34c1.06-1.76,2.49-3.09,4.27-3.98
	c1.78-0.89,3.81-1.27,6.1-1.15c2.4,0.14,4.43,0.77,6.06,1.88c1.63,1.12,2.84,2.62,3.62,4.5c0.78,1.87,1.1,4.03,0.96,6.47l-0.09,1.51
	l-15.13-0.86c0.07,2.08,0.43,3.58,1.1,4.49c0.67,0.91,1.53,1.39,2.6,1.45c0.98,0.06,1.75-0.16,2.33-0.65c0.57-0.49,1-1.2,1.27-2.13
	l7.41,0.42c-0.76,2.56-2.15,4.43-4.2,5.61C221.48,243.08,219.1,243.59,216.39,243.44 M217.31,224c-1.03-0.06-1.92,0.34-2.66,1.2
	c-0.74,0.86-1.21,2.12-1.43,3.8l7.45,0.42c-0.03-1.65-0.32-2.95-0.88-3.9C219.23,224.56,218.41,224.06,217.31,224 M238.15,248.36
	c-2.13,0.18-3.92-0.23-5.37-1.24c-1.45-1-2.26-2.54-2.44-4.61c-0.14-1.64,0.17-3.03,0.95-4.17c0.78-1.14,1.84-2.08,3.2-2.81
	c1.36-0.73,2.86-1.3,4.49-1.7s3.23-0.69,4.78-0.85l-0.05-0.5c-0.11-1.3-0.45-2.3-1.02-2.97c-0.56-0.67-1.31-0.96-2.26-0.88
	c-0.79,0.07-1.44,0.38-1.94,0.92c-0.5,0.55-0.79,1.3-0.86,2.26l-7.3,0.64c0.18-2.47,1.14-4.46,2.88-5.97
	c1.73-1.52,4.09-2.4,7.08-2.67c3.46-0.3,6.1,0.33,7.91,1.91c1.8,1.57,2.86,4.08,3.16,7.52l1.16,13.27l-6.93,0.6l-0.44-3
	c-0.7,1.2-1.67,2.17-2.94,2.93C240.92,247.8,239.57,248.23,238.15,248.36 M240.78,243.3c1.06-0.09,1.93-0.58,2.61-1.48
	c0.67-0.91,0.94-2.15,0.8-3.73l-0.15-1.78c-2.28,0.26-3.88,0.8-4.8,1.64c-0.92,0.83-1.34,1.79-1.24,2.89
	c0.08,0.91,0.37,1.57,0.88,1.97C239.39,243.2,240.03,243.37,240.78,243.3 M255.26,247l1.03-32.04l7.78,0.25l-1.03,32.04L255.26,247z
	 M269.88,222.85c-0.65,0-1.22-0.14-1.71-0.41c-0.49-0.28-0.88-0.67-1.15-1.15c-0.28-0.49-0.42-1.07-0.42-1.73
	c0-0.66,0.14-1.23,0.42-1.73c0.28-0.49,0.66-0.87,1.15-1.15c0.49-0.28,1.06-0.41,1.71-0.41c0.65,0,1.22,0.14,1.72,0.41
	c0.49,0.28,0.87,0.67,1.15,1.15c0.28,0.49,0.42,1.07,0.42,1.73c0,0.66-0.14,1.24-0.42,1.73c-0.28,0.49-0.66,0.87-1.15,1.15
	C271.1,222.72,270.53,222.85,269.88,222.85 M269.88,222.04c0.71,0,1.28-0.22,1.7-0.66c0.42-0.44,0.63-1.05,0.63-1.82
	c0-0.78-0.21-1.38-0.63-1.83c-0.42-0.44-0.99-0.66-1.7-0.66c-0.74,0-1.31,0.22-1.72,0.66c-0.4,0.44-0.61,1.05-0.61,1.83
	c0,0.77,0.21,1.38,0.61,1.82C268.57,221.81,269.14,222.04,269.88,222.04 M268.57,221.17v-3.31h1.4c0.88,0,1.31,0.34,1.31,1
	c0,0.21-0.07,0.39-0.21,0.52c-0.14,0.14-0.32,0.23-0.55,0.28c0.25,0.11,0.45,0.29,0.6,0.56c0.15,0.26,0.26,0.58,0.32,0.95h-0.96
	c-0.07-0.39-0.18-0.69-0.33-0.91c-0.15-0.22-0.36-0.33-0.64-0.33h-0.03v1.24H268.57z M269.81,218.46h-0.32v0.86h0.32
	c0.2,0,0.34-0.04,0.42-0.13c0.09-0.07,0.13-0.18,0.13-0.29c0-0.13-0.04-0.23-0.13-0.32C270.15,218.5,270.01,218.46,269.81,218.46
	 M30.59,251.48l-3.85-30.36l8.07-1.02l1.52,12.01l10.15-1.29l-1.52-12.01l8.07-1.02l3.85,30.36l-8.07,1.02l-1.57-12.42l-10.15,1.29
	l1.58,12.42L30.59,251.48z M65.08,244.36c-2.13,0-3.88-0.56-5.23-1.69c-1.36-1.13-2.03-2.72-2.03-4.8c0-1.65,0.43-3,1.3-4.07
	c0.87-1.06,2.01-1.9,3.42-2.51c1.41-0.61,2.95-1.04,4.61-1.3c1.66-0.25,3.27-0.4,4.82-0.43v-0.51c0-1.3-0.25-2.32-0.75-3.03
	c-0.5-0.71-1.23-1.07-2.17-1.07c-0.79,0-1.46,0.25-2.01,0.75c-0.55,0.5-0.9,1.23-1.05,2.17h-7.31c0.39-2.44,1.52-4.33,3.38-5.69
	c1.86-1.35,4.27-2.03,7.26-2.03c3.47,0,6.03,0.86,7.69,2.58c1.66,1.72,2.49,4.3,2.49,7.75v13.29h-6.94l-0.18-3.02
	c-0.79,1.13-1.85,2.01-3.18,2.65C67.89,244.04,66.51,244.36,65.08,244.36 M68.14,239.57c1.06,0,1.97-0.42,2.72-1.26
	c0.74-0.84,1.12-2.05,1.12-3.63v-1.79c-2.29,0.07-3.92,0.47-4.91,1.22c-0.99,0.74-1.48,1.66-1.48,2.76c0,0.91,0.24,1.59,0.71,2.03
	C66.76,239.34,67.38,239.57,68.14,239.57 M80.37,257.45l3.15-32.46l6.91,0.67l-0.09,3.75c1.7-2.74,4.15-3.95,7.33-3.65
	c1.88,0.18,3.45,0.86,4.71,2.04c1.26,1.18,2.18,2.71,2.75,4.6c0.56,1.89,0.74,3.99,0.51,6.29c-0.23,2.36-0.83,4.41-1.79,6.16
	c-0.96,1.74-2.2,3.05-3.7,3.93c-1.51,0.88-3.2,1.23-5.08,1.05c-1.21-0.12-2.33-0.51-3.37-1.18c-1.04-0.66-1.83-1.57-2.4-2.73
	L88.1,258.2L80.37,257.45z M93.22,244.24c1.24,0.12,2.24-0.42,3-1.62c0.76-1.19,1.23-2.76,1.42-4.7c0.19-1.94,0.03-3.58-0.49-4.91
	c-0.51-1.34-1.39-2.06-2.63-2.18c-1.15-0.11-2.13,0.35-2.93,1.39c-0.81,1.04-1.3,2.56-1.49,4.56L90,237.6
	c-0.19,1.97,0.01,3.54,0.6,4.72C91.2,243.48,92.06,244.13,93.22,244.24 M107.56,254.65l0.71-32.6l6.94,0.15l0.19,3.75
	c1.49-2.86,3.84-4.25,7.03-4.18c1.89,0.04,3.51,0.6,4.85,1.68c1.35,1.08,2.37,2.54,3.08,4.38c0.71,1.84,1.03,3.92,0.99,6.24
	c-0.05,2.37-0.49,4.47-1.33,6.28c-0.83,1.81-1.97,3.21-3.4,4.2c-1.44,0.99-3.1,1.46-4.99,1.42c-1.22-0.03-2.37-0.33-3.45-0.92
	c-1.09-0.59-1.95-1.44-2.6-2.54l-0.27,12.32L107.56,254.65z M119.38,240.52c1.25,0.03,2.2-0.58,2.87-1.83
	c0.67-1.25,1.02-2.85,1.07-4.8c0.04-1.95-0.25-3.56-0.85-4.86c-0.61-1.29-1.54-1.95-2.79-1.98c-1.16-0.02-2.1,0.52-2.82,1.61
	c-0.73,1.09-1.11,2.65-1.16,4.66l-0.02,0.82c-0.04,1.98,0.27,3.53,0.95,4.66C117.31,239.92,118.23,240.5,119.38,240.52
	 M134.56,256.33l1.13-4.88c0.98,0.3,1.92,0.41,2.83,0.32c0.69-0.07,1.31-0.35,1.82-0.82c0.52-0.49,1-1.41,1.45-2.76l0.67-2.09
	l-11.08-21.67l8-0.79l5.79,14.03l2.81-14.87l7.5-0.74l-7.28,25.82c-0.81,2.89-1.88,5.08-3.21,6.56c-1.32,1.48-3.02,2.32-5.08,2.52
	c-1.06,0.1-2.04,0.1-2.94-0.01C136.06,256.83,135.26,256.63,134.56,256.33"/>
</svg>
