<svg xmlns="http://www.w3.org/2000/svg" viewBox="0 0 1200 600" width="1200" height="600">
  <style>
    .primary-color { fill: #FF5C00; }
    .accent-color { fill: #FFCC00; }
    .box-color { fill: #FF5C00; }
    .toy-color-1 { fill: #3498db; }
    .toy-color-2 { fill: #2ECC71; }
    .toy-color-3 { fill: #9B59B6; }
    .toy-color-4 { fill: #E74C3C; }
    .burger-color { fill: #8B4513; }
    .bun-color { fill: #E67E22; }
    .fries-color { fill: #F1C40F; }
  </style>
  
  <!-- Background -->
  <rect width="1200" height="600" fill="#FF5C00" />
  
  <!-- Pattern of Happy Meal Boxes -->
  <g opacity="0.1">
    <!-- Row 1 -->
    <g transform="translate(100, 100) scale(0.8)">
      <rect class="box-color" x="-40" y="-40" width="80" height="80" rx="10" ry="10" fill="#FFFFFF" />
      <text x="0" y="10" font-family="Arial" font-size="16" text-anchor="middle" fill="#FFFFFF">Happy</text>
      <text x="0" y="30" font-family="Arial" font-size="16" text-anchor="middle" fill="#FFFFFF">Meal</text>
    </g>
    
    <g transform="translate(300, 100) scale(0.8)">
      <rect class="box-color" x="-40" y="-40" width="80" height="80" rx="10" ry="10" fill="#FFFFFF" />
      <text x="0" y="10" font-family="Arial" font-size="16" text-anchor="middle" fill="#FFFFFF">Happy</text>
      <text x="0" y="30" font-family="Arial" font-size="16" text-anchor="middle" fill="#FFFFFF">Meal</text>
    </g>
    
    <g transform="translate(500, 100) scale(0.8)">
      <rect class="box-color" x="-40" y="-40" width="80" height="80" rx="10" ry="10" fill="#FFFFFF" />
      <text x="0" y="10" font-family="Arial" font-size="16" text-anchor="middle" fill="#FFFFFF">Happy</text>
      <text x="0" y="30" font-family="Arial" font-size="16" text-anchor="middle" fill="#FFFFFF">Meal</text>
    </g>
    
    <g transform="translate(700, 100) scale(0.8)">
      <rect class="box-color" x="-40" y="-40" width="80" height="80" rx="10" ry="10" fill="#FFFFFF" />
      <text x="0" y="10" font-family="Arial" font-size="16" text-anchor="middle" fill="#FFFFFF">Happy</text>
      <text x="0" y="30" font-family="Arial" font-size="16" text-anchor="middle" fill="#FFFFFF">Meal</text>
    </g>
    
    <g transform="translate(900, 100) scale(0.8)">
      <rect class="box-color" x="-40" y="-40" width="80" height="80" rx="10" ry="10" fill="#FFFFFF" />
      <text x="0" y="10" font-family="Arial" font-size="16" text-anchor="middle" fill="#FFFFFF">Happy</text>
      <text x="0" y="30" font-family="Arial" font-size="16" text-anchor="middle" fill="#FFFFFF">Meal</text>
    </g>
    
    <g transform="translate(1100, 100) scale(0.8)">
      <rect class="box-color" x="-40" y="-40" width="80" height="80" rx="10" ry="10" fill="#FFFFFF" />
      <text x="0" y="10" font-family="Arial" font-size="16" text-anchor="middle" fill="#FFFFFF">Happy</text>
      <text x="0" y="30" font-family="Arial" font-size="16" text-anchor="middle" fill="#FFFFFF">Meal</text>
    </g>
    
    <!-- Row 2 -->
    <g transform="translate(100, 300) scale(0.8)">
      <rect class="box-color" x="-40" y="-40" width="80" height="80" rx="10" ry="10" fill="#FFFFFF" />
      <text x="0" y="10" font-family="Arial" font-size="16" text-anchor="middle" fill="#FFFFFF">Happy</text>
      <text x="0" y="30" font-family="Arial" font-size="16" text-anchor="middle" fill="#FFFFFF">Meal</text>
    </g>
    
    <g transform="translate(300, 300) scale(0.8)">
      <rect class="box-color" x="-40" y="-40" width="80" height="80" rx="10" ry="10" fill="#FFFFFF" />
      <text x="0" y="10" font-family="Arial" font-size="16" text-anchor="middle" fill="#FFFFFF">Happy</text>
      <text x="0" y="30" font-family="Arial" font-size="16" text-anchor="middle" fill="#FFFFFF">Meal</text>
    </g>
    
    <g transform="translate(500, 300) scale(0.8)">
      <rect class="box-color" x="-40" y="-40" width="80" height="80" rx="10" ry="10" fill="#FFFFFF" />
      <text x="0" y="10" font-family="Arial" font-size="16" text-anchor="middle" fill="#FFFFFF">Happy</text>
      <text x="0" y="30" font-family="Arial" font-size="16" text-anchor="middle" fill="#FFFFFF">Meal</text>
    </g>
    
    <g transform="translate(700, 300) scale(0.8)">
      <rect class="box-color" x="-40" y="-40" width="80" height="80" rx="10" ry="10" fill="#FFFFFF" />
      <text x="0" y="10" font-family="Arial" font-size="16" text-anchor="middle" fill="#FFFFFF">Happy</text>
      <text x="0" y="30" font-family="Arial" font-size="16" text-anchor="middle" fill="#FFFFFF">Meal</text>
    </g>
    
    <g transform="translate(900, 300) scale(0.8)">
      <rect class="box-color" x="-40" y="-40" width="80" height="80" rx="10" ry="10" fill="#FFFFFF" />
      <text x="0" y="10" font-family="Arial" font-size="16" text-anchor="middle" fill="#FFFFFF">Happy</text>
      <text x="0" y="30" font-family="Arial" font-size="16" text-anchor="middle" fill="#FFFFFF">Meal</text>
    </g>
    
    <g transform="translate(1100, 300) scale(0.8)">
      <rect class="box-color" x="-40" y="-40" width="80" height="80" rx="10" ry="10" fill="#FFFFFF" />
      <text x="0" y="10" font-family="Arial" font-size="16" text-anchor="middle" fill="#FFFFFF">Happy</text>
      <text x="0" y="30" font-family="Arial" font-size="16" text-anchor="middle" fill="#FFFFFF">Meal</text>
    </g>
    
    <!-- Row 3 -->
    <g transform="translate(100, 500) scale(0.8)">
      <rect class="box-color" x="-40" y="-40" width="80" height="80" rx="10" ry="10" fill="#FFFFFF" />
      <text x="0" y="10" font-family="Arial" font-size="16" text-anchor="middle" fill="#FFFFFF">Happy</text>
      <text x="0" y="30" font-family="Arial" font-size="16" text-anchor="middle" fill="#FFFFFF">Meal</text>
    </g>
    
    <g transform="translate(300, 500) scale(0.8)">
      <rect class="box-color" x="-40" y="-40" width="80" height="80" rx="10" ry="10" fill="#FFFFFF" />
      <text x="0" y="10" font-family="Arial" font-size="16" text-anchor="middle" fill="#FFFFFF">Happy</text>
      <text x="0" y="30" font-family="Arial" font-size="16" text-anchor="middle" fill="#FFFFFF">Meal</text>
    </g>
    
    <g transform="translate(500, 500) scale(0.8)">
      <rect class="box-color" x="-40" y="-40" width="80" height="80" rx="10" ry="10" fill="#FFFFFF" />
      <text x="0" y="10" font-family="Arial" font-size="16" text-anchor="middle" fill="#FFFFFF">Happy</text>
      <text x="0" y="30" font-family="Arial" font-size="16" text-anchor="middle" fill="#FFFFFF">Meal</text>
    </g>
    
    <g transform="translate(700, 500) scale(0.8)">
      <rect class="box-color" x="-40" y="-40" width="80" height="80" rx="10" ry="10" fill="#FFFFFF" />
      <text x="0" y="10" font-family="Arial" font-size="16" text-anchor="middle" fill="#FFFFFF">Happy</text>
      <text x="0" y="30" font-family="Arial" font-size="16" text-anchor="middle" fill="#FFFFFF">Meal</text>
    </g>
    
    <g transform="translate(900, 500) scale(0.8)">
      <rect class="box-color" x="-40" y="-40" width="80" height="80" rx="10" ry="10" fill="#FFFFFF" />
      <text x="0" y="10" font-family="Arial" font-size="16" text-anchor="middle" fill="#FFFFFF">Happy</text>
      <text x="0" y="30" font-family="Arial" font-size="16" text-anchor="middle" fill="#FFFFFF">Meal</text>
    </g>
    
    <g transform="translate(1100, 500) scale(0.8)">
      <rect class="box-color" x="-40" y="-40" width="80" height="80" rx="10" ry="10" fill="#FFFFFF" />
      <text x="0" y="10" font-family="Arial" font-size="16" text-anchor="middle" fill="#FFFFFF">Happy</text>
      <text x="0" y="30" font-family="Arial" font-size="16" text-anchor="middle" fill="#FFFFFF">Meal</text>
    </g>
  </g>
  
  <!-- Large McDonald's Arches -->
  <path d="M400,350 Q600,200 800,350" stroke="#FFCC00" stroke-width="30" fill="none" />
  
  <!-- Toys -->
  <g transform="translate(250, 400)">
    <circle class="toy-color-1" cx="0" cy="0" r="40" />
    <circle fill="white" cx="-15" cy="-10" r="10" />
    <circle fill="white" cx="15" cy="-10" r="10" />
    <circle fill="black" cx="-15" cy="-10" r="5" />
    <circle fill="black" cx="15" cy="-10" r="5" />
    <path d="M-20,15 Q0,30 20,15" stroke="black" stroke-width="3" fill="none" />
  </g>
  
  <g transform="translate(950, 400)">
    <circle class="toy-color-3" cx="0" cy="0" r="40" />
    <circle fill="white" cx="-15" cy="-10" r="10" />
    <circle fill="white" cx="15" cy="-10" r="10" />
    <circle fill="black" cx="-15" cy="-10" r="5" />
    <circle fill="black" cx="15" cy="-10" r="5" />
    <path d="M-20,15 Q0,30 20,15" stroke="black" stroke-width="3" fill="none" />
  </g>
  
  <!-- Burger -->
  <g transform="translate(600, 450) scale(1.5)">
    <!-- Top Bun -->
    <ellipse class="bun-color" cx="0" cy="-20" rx="40" ry="15" />
    
    <!-- Patty -->
    <rect class="burger-color" x="-35" y="-15" width="70" height="15" rx="3" ry="3" />
    
    <!-- Bottom Bun -->
    <ellipse class="bun-color" cx="0" cy="10" rx="40" ry="15" />
  </g>
</svg>